<?xml version="1.0" standalone="no"?>
<!DOCTYPE svg PUBLIC "-//W3C//DTD SVG 20010904//EN"
 "http://www.w3.org/TR/2001/REC-SVG-20010904/DTD/svg10.dtd">
<svg version="1.0" xmlns="http://www.w3.org/2000/svg"
 width="1500.000000pt" height="1500.000000pt" viewBox="0 0 1500.000000 1500.000000"
 preserveAspectRatio="xMidYMid meet">
<metadata>
Created by potrace 1.14, written by Peter Selinger 2001-2017
</metadata>
<g transform="translate(0.000000,1500.000000) scale(0.100000,-0.100000)"
fill="#000000" stroke="none">
<path d="M7059 11226 c-2 -2 -51 -6 -109 -10 -58 -3 -115 -8 -127 -10 -12 -3
-48 -7 -80 -11 -33 -3 -70 -7 -84 -10 -13 -2 -67 -11 -119 -21 -52 -9 -108
-18 -124 -21 -63 -10 -317 -76 -426 -109 -136 -42 -381 -132 -395 -145 -5 -5
-14 -9 -21 -9 -38 0 -363 -167 -623 -320 -30 -18 -241 -159 -256 -172 -5 -5
-44 -34 -85 -65 -68 -51 -167 -130 -180 -143 -3 -3 -41 -36 -85 -75 -67 -58
-325 -315 -360 -358 -6 -6 -40 -46 -75 -88 -86 -100 -96 -112 -161 -199 -104
-141 -264 -380 -292 -440 -4 -8 -21 -37 -37 -65 -47 -77 -183 -357 -233 -480
-103 -251 -216 -626 -250 -830 -3 -16 -12 -68 -20 -115 -8 -47 -18 -107 -22
-133 -11 -82 -14 -89 -36 -105 -27 -18 -58 -87 -59 -127 0 -22 -5 -31 -17 -31
-35 -1 -178 -15 -193 -19 -8 -2 -46 -7 -85 -10 -38 -4 -72 -8 -75 -10 -3 -1
-25 -6 -50 -9 -62 -8 -97 -15 -150 -26 -25 -5 -56 -12 -70 -14 -14 -2 -45 -9
-70 -16 -25 -7 -56 -14 -70 -17 -55 -10 -320 -104 -405 -143 -556 -260 -802
-655 -803 -1290 0 -435 110 -744 355 -996 217 -224 670 -441 1038 -498 46 -8
77 -13 155 -26 30 -5 76 -12 102 -15 26 -3 62 -7 80 -9 53 -7 119 -15 178 -22
30 -3 57 -7 59 -9 2 -2 5 -19 7 -37 11 -105 47 -157 122 -178 91 -24 489 -34
692 -17 124 10 165 37 195 127 l15 46 153 -4 c207 -7 6907 -7 7079 0 l137 5 6
-26 c12 -49 54 -108 89 -125 46 -22 154 -30 396 -31 211 0 345 9 415 27 74 19
117 88 120 193 0 21 25 28 141 39 71 7 209 24 244 31 14 2 43 7 65 10 48 7
140 23 224 40 94 18 243 63 333 100 470 193 742 438 872 787 31 83 43 127 71
260 27 129 28 513 0 648 -2 14 -10 50 -16 80 -14 72 -54 188 -95 275 -164 349
-500 593 -1025 743 -111 32 -223 58 -286 67 -21 3 -58 10 -83 15 -25 5 -65 11
-90 15 -25 3 -65 8 -90 11 -25 3 -56 7 -70 10 -14 2 -61 7 -105 10 -44 4 -83
9 -87 13 -3 3 -9 25 -12 48 -13 99 -58 133 -201 152 -106 14 -224 24 -256 22
-29 -1 -24 -21 -65 239 -3 19 -9 51 -14 70 -5 19 -11 49 -14 65 -15 87 -71
285 -133 474 -132 400 -372 862 -622 1198 -25 34 -53 71 -61 83 -8 13 -20 28
-25 34 -6 6 -30 36 -55 66 -184 225 -423 464 -640 640 -177 143 -428 317 -590
407 -30 17 -73 41 -95 54 -62 35 -242 123 -325 159 -41 18 -93 40 -115 50 -56
25 -255 97 -345 126 -166 52 -449 121 -577 140 -21 3 -49 7 -63 10 -14 2 -47
7 -75 10 -27 3 -57 7 -65 9 -8 2 -44 7 -80 10 -36 3 -83 8 -105 11 -48 6 -610
15 -616 10z"/>
</g>
</svg>
